<?xml version="1.0" encoding="utf-8"?>
<!-- Generator: Adobe Illustrator 19.2.1, SVG Export Plug-In . SVG Version: 6.00 Build 0)  -->
<svg version="1.1" id="Ebene_1" xmlns="http://www.w3.org/2000/svg" xmlns:xlink="http://www.w3.org/1999/xlink" x="0px" y="0px"
	 width="211.5px" height="49.5px" viewBox="0 0 211.5 49.5" style="enable-background:new 0 0 211.5 49.5;" xml:space="preserve">
<style type="text/css">
	.st0{clip-path:url(#SVGID_2_);fill:#0053A1;}
</style>
<g>
	<defs>
		<rect id="SVGID_1_" x="-27.2" y="-38" width="266.2" height="100"/>
	</defs>
	<clipPath id="SVGID_2_">
		<use xlink:href="#SVGID_1_"  style="overflow:visible;"/>
	</clipPath>
	<path class="st0" d="M172.3,10.7c-1.4,0-4.2,0-4.2,7.1c0,6.5,0,18.3,0,20.3c-0.1,3.7,1.2,5.4,4.2,5.4c3,0,4.3-1.6,4.2-5.4
		c0-2,0-13.8,0-20.3C176.5,10.7,173.7,10.7,172.3,10.7 M172.3,4.4c3.1,0,11.5,1.5,11.5,13V37c0,11.1-9.2,12.3-11.5,12.3
		c-2.3,0-11.5-1.2-11.5-12.3V17.4C160.8,5.9,169.2,4.4,172.3,4.4"/>
	<path class="st0" d="M143.5,11.2v12h3.7c0.7-0.1,1.2-0.3,1.7-0.8c0.7-0.6,1-1.2,1.2-1.9c0.4-1.3,0.5-1.9,0.5-3.2
		c0-1.3-0.1-2.2-0.6-3.3c-0.4-0.9-0.7-1.5-1.4-2.1c-0.7-0.6-1.4-0.7-2.3-0.7H143.5z M136.1,5.4h12.8c1,0,3.4,0.5,5.2,1.9
		c1.4,1.1,2,2.2,2.5,3.4c0.9,2.1,1,3.9,1,6.5c0,1.8,0,3-0.4,4.6c-0.3,1.2-0.7,2.1-1.4,3.1c-0.7,0.9-1.6,1.6-2.2,2.1
		c0.3,0.1,0.9,0.7,1.4,1.2c0.6,0.7,0.8,1.2,1.2,2.1c0.4,1,0.5,1.7,0.7,2.8c0.6,2.3,0.8,3.6,1.3,5.9c0.3,1.4,0.5,2.3,0.9,3.7
		c0.4,1.3,0.7,2.6,1.2,3.8c0.3,0.7,0.4,1,0.7,1.5c0.2,0.3,0.4,0.5,0.7,0.8h-7.4c-0.3-0.3-0.4-0.3-0.6-0.6c-0.3-0.5-0.5-0.9-0.7-1.5
		c-0.4-1.4-1-3.6-1.4-5.4c-0.6-2.4-0.6-3.7-1.3-6.1c-0.4-1.4-0.6-2.2-1.2-3.3c-0.5-0.9-0.7-1.3-1.2-1.8c-0.3-0.3-0.5-0.4-0.9-0.6
		h-3.6v19.3h-7.5V5.4z"/>
	<polygon class="st0" points="0.5,48.6 0.5,0.3 12,10.2 12,48.6 	"/>
	<polygon class="st0" points="16.6,48.6 16.6,14.2 22.3,19.2 28.1,14.2 28.1,48.6 	"/>
	<polygon class="st0" points="32.7,48.6 32.7,10.2 44.2,0.3 44.2,48.6 	"/>
	<polygon class="st0" points="55.4,48.6 60,5.4 69,5.4 75.8,31.7 82.7,5.4 91.5,5.4 96.4,48.6 89,48.6 85.4,22.2 79.3,48.6 
		72.5,48.6 66.3,22 63.1,48.6 	"/>
	<rect x="98.3" y="5.4" class="st0" width="7.5" height="43.3"/>
	<polygon class="st0" points="110.3,5.4 117.8,5.4 117.8,23.3 127.4,5.4 134.5,5.4 124.6,25.5 135.4,48.6 127.9,48.6 117.8,27.7 
		117.8,48.6 110.3,48.6 	"/>
	<polygon class="st0" points="187.2,5.4 195.6,5.4 203.3,31.3 203.3,5.4 210.7,5.4 210.7,48.6 201.7,48.6 194.6,23.8 194.6,48.6 
		187.2,48.6 	"/>
</g>
</svg>
